<svg xmlns="http://www.w3.org/2000/svg" xmlns:xlink="http://www.w3.org/1999/xlink" version="1.1" x="0px" y="0px" viewBox="0 0 100 125" enable-background="new 0 0 100 100" xml:space="preserve"><g><path d="M85.286,20.194H64.784v-5.189c0-3.373-2.744-6.116-6.116-6.116H41.332c-3.373,0-6.116,2.744-6.116,6.116v5.189H14.713   c-2.083,0-3.778,1.695-3.778,3.778v4.676c0,2.083,1.695,3.778,3.778,3.778h5.302l4.873,55.071c0,1.993,1.621,3.614,3.613,3.614   h42.996c1.993,0,3.614-1.621,3.609-3.517l4.877-55.168h5.302c2.083,0,3.778-1.695,3.778-3.778v-4.676   C89.064,21.889,87.369,20.194,85.286,20.194z M37.438,15.005c0-2.147,1.747-3.894,3.894-3.894h17.336   c2.147,0,3.894,1.747,3.894,3.894v5.189H37.438V15.005z M72.89,87.497c0,0.768-0.624,1.392-1.392,1.392H28.502   c-0.767,0-1.391-0.624-1.395-1.489l-4.86-54.973h55.507L72.89,87.497z M86.842,28.648c0,0.857-0.697,1.555-1.556,1.555H14.713   c-0.857,0-1.555-0.698-1.555-1.555v-4.676c0-0.857,0.698-1.555,1.555-1.555h20.502h29.568h20.502c0.858,0,1.556,0.698,1.556,1.555   V28.648z"/><g><rect x="36.266" y="41.662" width="2.223" height="36.68"/><rect x="49.014" y="41.662" width="2.223" height="36.675"/><rect x="61.513" y="41.662" width="2.222" height="36.675"/></g></g></svg>